# xmcd
#
# Track frame offsets: 
#        150
#        17649
#        37899
#        55547
#        75801
#        98901
#        120020
#        142250
#        155683
#        180158
#        210086
#
# Disc length: 3102 seconds
#
# Revision: 0
# Processed by: cddbd v1.5.2PL0 Copyright (c) Steve Scherf et al.
# Submitted via: ExactAudioCopy v1.0b6
#
DISCID=700c1c0b
DTITLE=박정현 - Gift
DYEAR=2012
DGENRE=R&B
TTITLE0=우연히
TTITLE1=겨울비
TTITLE2=첫인상
TTITLE3=그대 내 품에
TTITLE4=나가거든 (If I Leave)
TTITLE5=내 낡은 서랍속의 바다
TTITLE6=이젠 그랬으면 좋겠네
TTITLE7=이브의 경고
TTITLE8=소나기
TTITLE9=그것만이 내 세상
TTITLE10=세노야
EXTD=
EXTT0=
EXTT1=
EXTT2=
EXTT3=
EXTT4=
EXTT5=
EXTT6=
EXTT7=
EXTT8=
EXTT9=
EXTT10=
PLAYORDER=
